<svg xmlns="http://www.w3.org/2000/svg" width="920" height="560" viewBox="0 0 920 560">
<rect width="100%" height="100%" fill="#ffffff"/>
<text x="90" y="30" font-family="Arial, sans-serif" font-size="22" font-weight="700">Paper Fig.9-style Digit Accuracy by RBs</text>
<line x1="90" y1="475" x2="670" y2="475" stroke="#222" stroke-width="1.2"/>
<line x1="90" y1="55" x2="90" y2="475" stroke="#222" stroke-width="1.2"/>
<line x1="90" y1="475.00" x2="670" y2="475.00" stroke="#e5e5e5"/>
<text x="78" y="479.00" text-anchor="end" font-family="Arial, sans-serif" font-size="12">0</text>
<line x1="90" y1="391.00" x2="670" y2="391.00" stroke="#e5e5e5"/>
<text x="78" y="395.00" text-anchor="end" font-family="Arial, sans-serif" font-size="12">0.194</text>
<line x1="90" y1="307.00" x2="670" y2="307.00" stroke="#e5e5e5"/>
<text x="78" y="311.00" text-anchor="end" font-family="Arial, sans-serif" font-size="12">0.388</text>
<line x1="90" y1="223.00" x2="670" y2="223.00" stroke="#e5e5e5"/>
<text x="78" y="227.00" text-anchor="end" font-family="Arial, sans-serif" font-size="12">0.582</text>
<line x1="90" y1="139.00" x2="670" y2="139.00" stroke="#e5e5e5"/>
<text x="78" y="143.00" text-anchor="end" font-family="Arial, sans-serif" font-size="12">0.777</text>
<line x1="90" y1="55.00" x2="670" y2="55.00" stroke="#e5e5e5"/>
<text x="78" y="59.00" text-anchor="end" font-family="Arial, sans-serif" font-size="12">0.971</text>
<line x1="90.00" y1="475" x2="90.00" y2="480" stroke="#222"/>
<text x="90.00" y="499" text-anchor="middle" font-family="Arial, sans-serif" font-size="12">5</text>
<line x1="244.67" y1="475" x2="244.67" y2="480" stroke="#222"/>
<text x="244.67" y="499" text-anchor="middle" font-family="Arial, sans-serif" font-size="12">9</text>
<line x1="360.67" y1="475" x2="360.67" y2="480" stroke="#222"/>
<text x="360.67" y="499" text-anchor="middle" font-family="Arial, sans-serif" font-size="12">12</text>
<line x1="476.67" y1="475" x2="476.67" y2="480" stroke="#222"/>
<text x="476.67" y="499" text-anchor="middle" font-family="Arial, sans-serif" font-size="12">15</text>
<line x1="670.00" y1="475" x2="670.00" y2="480" stroke="#222"/>
<text x="670.00" y="499" text-anchor="middle" font-family="Arial, sans-serif" font-size="12">20</text>
<polyline points="90.00,255.10 244.67,159.49 360.67,127.84 476.67,88.63 670.00,86.11" fill="none" stroke="#1f77b4" stroke-width="2.4"/>
<circle cx="90.00" cy="255.10" r="3.5" fill="#1f77b4"/>
<circle cx="244.67" cy="159.49" r="3.5" fill="#1f77b4"/>
<circle cx="360.67" cy="127.84" r="3.5" fill="#1f77b4"/>
<circle cx="476.67" cy="88.63" r="3.5" fill="#1f77b4"/>
<circle cx="670.00" cy="86.11" r="3.5" fill="#1f77b4"/>
<line x1="705" y1="79" x2="728" y2="79" stroke="#1f77b4" stroke-width="3"/>
<text x="736" y="83" font-family="Arial, sans-serif" font-size="12">Continuous-LP(HiGHS)</text>
<polyline points="90.00,200.99 244.67,134.26 360.67,94.37 476.67,89.32 670.00,86.57" fill="none" stroke="#d62728" stroke-width="2.4"/>
<circle cx="90.00" cy="200.99" r="3.5" fill="#d62728"/>
<circle cx="244.67" cy="134.26" r="3.5" fill="#d62728"/>
<circle cx="360.67" cy="94.37" r="3.5" fill="#d62728"/>
<circle cx="476.67" cy="89.32" r="3.5" fill="#d62728"/>
<circle cx="670.00" cy="86.57" r="3.5" fill="#d62728"/>
<line x1="705" y1="101" x2="728" y2="101" stroke="#d62728" stroke-width="3"/>
<text x="736" y="105" font-family="Arial, sans-serif" font-size="12">Hybrid-Score-Greedy(alpha=0.25)</text>
<polyline points="90.00,255.10 244.67,159.49 360.67,127.84 476.67,88.63 670.00,86.11" fill="none" stroke="#2ca02c" stroke-width="2.4"/>
<circle cx="90.00" cy="255.10" r="3.5" fill="#2ca02c"/>
<circle cx="244.67" cy="159.49" r="3.5" fill="#2ca02c"/>
<circle cx="360.67" cy="127.84" r="3.5" fill="#2ca02c"/>
<circle cx="476.67" cy="88.63" r="3.5" fill="#2ca02c"/>
<circle cx="670.00" cy="86.11" r="3.5" fill="#2ca02c"/>
<line x1="705" y1="123" x2="728" y2="123" stroke="#2ca02c" stroke-width="3"/>
<text x="736" y="127" font-family="Arial, sans-serif" font-size="12">LP-Relax+Projection</text>
<polyline points="90.00,255.10 244.67,159.49 360.67,127.84 476.67,88.63 670.00,86.11" fill="none" stroke="#9467bd" stroke-width="2.4"/>
<circle cx="90.00" cy="255.10" r="3.5" fill="#9467bd"/>
<circle cx="244.67" cy="159.49" r="3.5" fill="#9467bd"/>
<circle cx="360.67" cy="127.84" r="3.5" fill="#9467bd"/>
<circle cx="476.67" cy="88.63" r="3.5" fill="#9467bd"/>
<circle cx="670.00" cy="86.11" r="3.5" fill="#9467bd"/>
<line x1="705" y1="145" x2="728" y2="145" stroke="#9467bd" stroke-width="3"/>
<text x="736" y="149" font-family="Arial, sans-serif" font-size="12">Paper-Hungarian</text>
<polyline points="90.00,269.78 244.67,189.52 360.67,181.04 476.67,164.30 670.00,142.29" fill="none" stroke="#ff7f0e" stroke-width="2.4"/>
<circle cx="90.00" cy="269.78" r="3.5" fill="#ff7f0e"/>
<circle cx="244.67" cy="189.52" r="3.5" fill="#ff7f0e"/>
<circle cx="360.67" cy="181.04" r="3.5" fill="#ff7f0e"/>
<circle cx="476.67" cy="164.30" r="3.5" fill="#ff7f0e"/>
<circle cx="670.00" cy="142.29" r="3.5" fill="#ff7f0e"/>
<line x1="705" y1="167" x2="728" y2="167" stroke="#ff7f0e" stroke-width="3"/>
<text x="736" y="171" font-family="Arial, sans-serif" font-size="12">Paper-OptUser-RandomRB</text>
<polyline points="90.00,261.07 244.67,157.88 360.67,117.30 476.67,93.68 670.00,93.91" fill="none" stroke="#17becf" stroke-width="2.4"/>
<circle cx="90.00" cy="261.07" r="3.5" fill="#17becf"/>
<circle cx="244.67" cy="157.88" r="3.5" fill="#17becf"/>
<circle cx="360.67" cy="117.30" r="3.5" fill="#17becf"/>
<circle cx="476.67" cy="93.68" r="3.5" fill="#17becf"/>
<circle cx="670.00" cy="93.91" r="3.5" fill="#17becf"/>
<line x1="705" y1="189" x2="728" y2="189" stroke="#17becf" stroke-width="3"/>
<text x="736" y="193" font-family="Arial, sans-serif" font-size="12">Paper-RandomUserRB</text>
<polyline points="90.00,265.65 244.67,164.30 360.67,115.69 476.67,88.63 670.00,86.11" fill="none" stroke="#4d4d4d" stroke-width="2.4"/>
<circle cx="90.00" cy="265.65" r="3.5" fill="#4d4d4d"/>
<circle cx="244.67" cy="164.30" r="3.5" fill="#4d4d4d"/>
<circle cx="360.67" cy="115.69" r="3.5" fill="#4d4d4d"/>
<circle cx="476.67" cy="88.63" r="3.5" fill="#4d4d4d"/>
<circle cx="670.00" cy="86.11" r="3.5" fill="#4d4d4d"/>
<line x1="705" y1="211" x2="728" y2="211" stroke="#4d4d4d" stroke-width="3"/>
<text x="736" y="215" font-family="Arial, sans-serif" font-size="12">Paper-Wireless-PER</text>
<polyline points="90.00,158.57 244.67,115.92 360.67,107.21 476.67,88.86 670.00,86.34" fill="none" stroke="#1f77b4" stroke-width="2.4"/>
<circle cx="90.00" cy="158.57" r="3.5" fill="#1f77b4"/>
<circle cx="244.67" cy="115.92" r="3.5" fill="#1f77b4"/>
<circle cx="360.67" cy="107.21" r="3.5" fill="#1f77b4"/>
<circle cx="476.67" cy="88.86" r="3.5" fill="#1f77b4"/>
<circle cx="670.00" cy="86.34" r="3.5" fill="#1f77b4"/>
<line x1="705" y1="233" x2="728" y2="233" stroke="#1f77b4" stroke-width="3"/>
<text x="736" y="237" font-family="Arial, sans-serif" font-size="12">Soft-Entropy-KKT(tau=1)</text>
<text x="380.0" y="532" text-anchor="middle" font-family="Arial, sans-serif" font-size="14">Number of RBs</text>
<text transform="translate(24 265.0) rotate(-90)" text-anchor="middle" font-family="Arial, sans-serif" font-size="14">Accuracy</text>
</svg>