<svg xmlns="http://www.w3.org/2000/svg" width="920" height="560" viewBox="0 0 920 560">
<rect width="100%" height="100%" fill="#ffffff"/>
<text x="90" y="30" font-family="Arial, sans-serif" font-size="22" font-weight="700">Paper Fig.7-style Digit Accuracy</text>
<line x1="90" y1="475" x2="670" y2="475" stroke="#222" stroke-width="1.2"/>
<line x1="90" y1="55" x2="90" y2="475" stroke="#222" stroke-width="1.2"/>
<line x1="90" y1="475.00" x2="670" y2="475.00" stroke="#e5e5e5"/>
<text x="78" y="479.00" text-anchor="end" font-family="Arial, sans-serif" font-size="12">0</text>
<line x1="90" y1="391.00" x2="670" y2="391.00" stroke="#e5e5e5"/>
<text x="78" y="395.00" text-anchor="end" font-family="Arial, sans-serif" font-size="12">0.193</text>
<line x1="90" y1="307.00" x2="670" y2="307.00" stroke="#e5e5e5"/>
<text x="78" y="311.00" text-anchor="end" font-family="Arial, sans-serif" font-size="12">0.386</text>
<line x1="90" y1="223.00" x2="670" y2="223.00" stroke="#e5e5e5"/>
<text x="78" y="227.00" text-anchor="end" font-family="Arial, sans-serif" font-size="12">0.578</text>
<line x1="90" y1="139.00" x2="670" y2="139.00" stroke="#e5e5e5"/>
<text x="78" y="143.00" text-anchor="end" font-family="Arial, sans-serif" font-size="12">0.771</text>
<line x1="90" y1="55.00" x2="670" y2="55.00" stroke="#e5e5e5"/>
<text x="78" y="59.00" text-anchor="end" font-family="Arial, sans-serif" font-size="12">0.964</text>
<line x1="90.00" y1="475" x2="90.00" y2="480" stroke="#222"/>
<text x="90.00" y="499" text-anchor="middle" font-family="Arial, sans-serif" font-size="12">0</text>
<line x1="186.67" y1="475" x2="186.67" y2="480" stroke="#222"/>
<text x="186.67" y="499" text-anchor="middle" font-family="Arial, sans-serif" font-size="12">2</text>
<line x1="283.33" y1="475" x2="283.33" y2="480" stroke="#222"/>
<text x="283.33" y="499" text-anchor="middle" font-family="Arial, sans-serif" font-size="12">4</text>
<line x1="380.00" y1="475" x2="380.00" y2="480" stroke="#222"/>
<text x="380.00" y="499" text-anchor="middle" font-family="Arial, sans-serif" font-size="12">6</text>
<line x1="476.67" y1="475" x2="476.67" y2="480" stroke="#222"/>
<text x="476.67" y="499" text-anchor="middle" font-family="Arial, sans-serif" font-size="12">8</text>
<line x1="573.33" y1="475" x2="573.33" y2="480" stroke="#222"/>
<text x="573.33" y="499" text-anchor="middle" font-family="Arial, sans-serif" font-size="12">10</text>
<line x1="670.00" y1="475" x2="670.00" y2="480" stroke="#222"/>
<text x="670.00" y="499" text-anchor="middle" font-family="Arial, sans-serif" font-size="12">12</text>
<polyline points="90.00,432.05 186.67,234.14 283.33,192.80 380.00,168.78 476.67,148.46 573.33,124.68 670.00,127.68" fill="none" stroke="#1f77b4" stroke-width="2.4"/>
<circle cx="90.00" cy="432.05" r="3.5" fill="#1f77b4"/>
<circle cx="186.67" cy="234.14" r="3.5" fill="#1f77b4"/>
<circle cx="283.33" cy="192.80" r="3.5" fill="#1f77b4"/>
<circle cx="380.00" cy="168.78" r="3.5" fill="#1f77b4"/>
<circle cx="476.67" cy="148.46" r="3.5" fill="#1f77b4"/>
<circle cx="573.33" cy="124.68" r="3.5" fill="#1f77b4"/>
<circle cx="670.00" cy="127.68" r="3.5" fill="#1f77b4"/>
<line x1="705" y1="79" x2="728" y2="79" stroke="#1f77b4" stroke-width="3"/>
<text x="736" y="83" font-family="Arial, sans-serif" font-size="12">Continuous-LP(HiGHS)</text>
<polyline points="90.00,432.05 186.67,241.07 283.33,202.73 380.00,167.40 476.67,129.06 573.33,110.59 670.00,108.74" fill="none" stroke="#d62728" stroke-width="2.4"/>
<circle cx="90.00" cy="432.05" r="3.5" fill="#d62728"/>
<circle cx="186.67" cy="241.07" r="3.5" fill="#d62728"/>
<circle cx="283.33" cy="202.73" r="3.5" fill="#d62728"/>
<circle cx="380.00" cy="167.40" r="3.5" fill="#d62728"/>
<circle cx="476.67" cy="129.06" r="3.5" fill="#d62728"/>
<circle cx="573.33" cy="110.59" r="3.5" fill="#d62728"/>
<circle cx="670.00" cy="108.74" r="3.5" fill="#d62728"/>
<line x1="705" y1="101" x2="728" y2="101" stroke="#d62728" stroke-width="3"/>
<text x="736" y="105" font-family="Arial, sans-serif" font-size="12">Hybrid-Score-Greedy(alpha=0.25)</text>
<polyline points="90.00,432.05 186.67,234.14 283.33,192.80 380.00,168.78 476.67,148.46 573.33,124.68 670.00,127.68" fill="none" stroke="#2ca02c" stroke-width="2.4"/>
<circle cx="90.00" cy="432.05" r="3.5" fill="#2ca02c"/>
<circle cx="186.67" cy="234.14" r="3.5" fill="#2ca02c"/>
<circle cx="283.33" cy="192.80" r="3.5" fill="#2ca02c"/>
<circle cx="380.00" cy="168.78" r="3.5" fill="#2ca02c"/>
<circle cx="476.67" cy="148.46" r="3.5" fill="#2ca02c"/>
<circle cx="573.33" cy="124.68" r="3.5" fill="#2ca02c"/>
<circle cx="670.00" cy="127.68" r="3.5" fill="#2ca02c"/>
<line x1="705" y1="123" x2="728" y2="123" stroke="#2ca02c" stroke-width="3"/>
<text x="736" y="127" font-family="Arial, sans-serif" font-size="12">LP-Relax+Projection</text>
<polyline points="90.00,432.05 186.67,234.14 283.33,192.80 380.00,168.78 476.67,148.46 573.33,124.68 670.00,127.68" fill="none" stroke="#9467bd" stroke-width="2.4"/>
<circle cx="90.00" cy="432.05" r="3.5" fill="#9467bd"/>
<circle cx="186.67" cy="234.14" r="3.5" fill="#9467bd"/>
<circle cx="283.33" cy="192.80" r="3.5" fill="#9467bd"/>
<circle cx="380.00" cy="168.78" r="3.5" fill="#9467bd"/>
<circle cx="476.67" cy="148.46" r="3.5" fill="#9467bd"/>
<circle cx="573.33" cy="124.68" r="3.5" fill="#9467bd"/>
<circle cx="670.00" cy="127.68" r="3.5" fill="#9467bd"/>
<line x1="705" y1="145" x2="728" y2="145" stroke="#9467bd" stroke-width="3"/>
<text x="736" y="149" font-family="Arial, sans-serif" font-size="12">Paper-Hungarian</text>
<polyline points="90.00,432.05 186.67,342.21 283.33,251.92 380.00,239.68 476.67,163.47 573.33,216.82 670.00,188.88" fill="none" stroke="#ff7f0e" stroke-width="2.4"/>
<circle cx="90.00" cy="432.05" r="3.5" fill="#ff7f0e"/>
<circle cx="186.67" cy="342.21" r="3.5" fill="#ff7f0e"/>
<circle cx="283.33" cy="251.92" r="3.5" fill="#ff7f0e"/>
<circle cx="380.00" cy="239.68" r="3.5" fill="#ff7f0e"/>
<circle cx="476.67" cy="163.47" r="3.5" fill="#ff7f0e"/>
<circle cx="573.33" cy="216.82" r="3.5" fill="#ff7f0e"/>
<circle cx="670.00" cy="188.88" r="3.5" fill="#ff7f0e"/>
<line x1="705" y1="167" x2="728" y2="167" stroke="#ff7f0e" stroke-width="3"/>
<text x="736" y="171" font-family="Arial, sans-serif" font-size="12">Paper-OptUser-RandomRB</text>
<polyline points="90.00,432.05 186.67,295.57 283.33,244.76 380.00,163.24 476.67,148.00 573.33,124.45 670.00,132.76" fill="none" stroke="#17becf" stroke-width="2.4"/>
<circle cx="90.00" cy="432.05" r="3.5" fill="#17becf"/>
<circle cx="186.67" cy="295.57" r="3.5" fill="#17becf"/>
<circle cx="283.33" cy="244.76" r="3.5" fill="#17becf"/>
<circle cx="380.00" cy="163.24" r="3.5" fill="#17becf"/>
<circle cx="476.67" cy="148.00" r="3.5" fill="#17becf"/>
<circle cx="573.33" cy="124.45" r="3.5" fill="#17becf"/>
<circle cx="670.00" cy="132.76" r="3.5" fill="#17becf"/>
<line x1="705" y1="189" x2="728" y2="189" stroke="#17becf" stroke-width="3"/>
<text x="736" y="193" font-family="Arial, sans-serif" font-size="12">Paper-RandomUserRB</text>
<polyline points="90.00,432.05 186.67,225.13 283.33,188.88 380.00,170.17 476.67,144.31 573.33,114.98 670.00,107.36" fill="none" stroke="#4d4d4d" stroke-width="2.4"/>
<circle cx="90.00" cy="432.05" r="3.5" fill="#4d4d4d"/>
<circle cx="186.67" cy="225.13" r="3.5" fill="#4d4d4d"/>
<circle cx="283.33" cy="188.88" r="3.5" fill="#4d4d4d"/>
<circle cx="380.00" cy="170.17" r="3.5" fill="#4d4d4d"/>
<circle cx="476.67" cy="144.31" r="3.5" fill="#4d4d4d"/>
<circle cx="573.33" cy="114.98" r="3.5" fill="#4d4d4d"/>
<circle cx="670.00" cy="107.36" r="3.5" fill="#4d4d4d"/>
<line x1="705" y1="211" x2="728" y2="211" stroke="#4d4d4d" stroke-width="3"/>
<text x="736" y="215" font-family="Arial, sans-serif" font-size="12">Paper-Wireless-PER</text>
<polyline points="90.00,432.05 186.67,216.82 283.33,152.85 380.00,134.14 476.67,122.83 573.33,86.11 670.00,92.58" fill="none" stroke="#1f77b4" stroke-width="2.4"/>
<circle cx="90.00" cy="432.05" r="3.5" fill="#1f77b4"/>
<circle cx="186.67" cy="216.82" r="3.5" fill="#1f77b4"/>
<circle cx="283.33" cy="152.85" r="3.5" fill="#1f77b4"/>
<circle cx="380.00" cy="134.14" r="3.5" fill="#1f77b4"/>
<circle cx="476.67" cy="122.83" r="3.5" fill="#1f77b4"/>
<circle cx="573.33" cy="86.11" r="3.5" fill="#1f77b4"/>
<circle cx="670.00" cy="92.58" r="3.5" fill="#1f77b4"/>
<line x1="705" y1="233" x2="728" y2="233" stroke="#1f77b4" stroke-width="3"/>
<text x="736" y="237" font-family="Arial, sans-serif" font-size="12">Soft-Entropy-KKT(tau=1)</text>
<text x="380.0" y="532" text-anchor="middle" font-family="Arial, sans-serif" font-size="14">FL iterations</text>
<text transform="translate(24 265.0) rotate(-90)" text-anchor="middle" font-family="Arial, sans-serif" font-size="14">Accuracy</text>
</svg>