<svg xmlns="http://www.w3.org/2000/svg" width="540" height="390" viewBox="0 0 540 390">
<rect width="100%" height="100%" fill="#ffffff"/>
<rect x="78" y="22" width="386" height="260" fill="#ffffff" stroke="#000000" stroke-width="1"/>
<line x1="78" y1="282.00" x2="464" y2="282.00" stroke="#d9d9d9" stroke-width="1"/>
<text x="69" y="286.00" text-anchor="end" font-family="Arial, Helvetica, sans-serif" font-size="14">0.08</text>
<line x1="78" y1="230.00" x2="464" y2="230.00" stroke="#d9d9d9" stroke-width="1"/>
<text x="69" y="234.00" text-anchor="end" font-family="Arial, Helvetica, sans-serif" font-size="14">0.256</text>
<line x1="78" y1="178.00" x2="464" y2="178.00" stroke="#d9d9d9" stroke-width="1"/>
<text x="69" y="182.00" text-anchor="end" font-family="Arial, Helvetica, sans-serif" font-size="14">0.432</text>
<line x1="78" y1="126.00" x2="464" y2="126.00" stroke="#d9d9d9" stroke-width="1"/>
<text x="69" y="130.00" text-anchor="end" font-family="Arial, Helvetica, sans-serif" font-size="14">0.608</text>
<line x1="78" y1="74.00" x2="464" y2="74.00" stroke="#d9d9d9" stroke-width="1"/>
<text x="69" y="78.00" text-anchor="end" font-family="Arial, Helvetica, sans-serif" font-size="14">0.784</text>
<line x1="78" y1="22.00" x2="464" y2="22.00" stroke="#d9d9d9" stroke-width="1"/>
<text x="69" y="26.00" text-anchor="end" font-family="Arial, Helvetica, sans-serif" font-size="14">0.96</text>
<line x1="78.00" y1="22" x2="78.00" y2="282" stroke="#d9d9d9" stroke-width="1"/>
<text x="78.00" y="305" text-anchor="middle" font-family="Arial, Helvetica, sans-serif" font-size="14">0</text>
<line x1="142.33" y1="22" x2="142.33" y2="282" stroke="#d9d9d9" stroke-width="1"/>
<text x="142.33" y="305" text-anchor="middle" font-family="Arial, Helvetica, sans-serif" font-size="14">20</text>
<line x1="206.67" y1="22" x2="206.67" y2="282" stroke="#d9d9d9" stroke-width="1"/>
<text x="206.67" y="305" text-anchor="middle" font-family="Arial, Helvetica, sans-serif" font-size="14">40</text>
<line x1="271.00" y1="22" x2="271.00" y2="282" stroke="#d9d9d9" stroke-width="1"/>
<text x="271.00" y="305" text-anchor="middle" font-family="Arial, Helvetica, sans-serif" font-size="14">60</text>
<line x1="335.33" y1="22" x2="335.33" y2="282" stroke="#d9d9d9" stroke-width="1"/>
<text x="335.33" y="305" text-anchor="middle" font-family="Arial, Helvetica, sans-serif" font-size="14">80</text>
<line x1="399.67" y1="22" x2="399.67" y2="282" stroke="#d9d9d9" stroke-width="1"/>
<text x="399.67" y="305" text-anchor="middle" font-family="Arial, Helvetica, sans-serif" font-size="14">100</text>
<line x1="464.00" y1="22" x2="464.00" y2="282" stroke="#d9d9d9" stroke-width="1"/>
<text x="464.00" y="305" text-anchor="middle" font-family="Arial, Helvetica, sans-serif" font-size="14">120</text>
<text x="271.0" y="329" text-anchor="middle" font-family="Arial, Helvetica, sans-serif" font-size="16">Number of iterations</text>
<text transform="translate(22 152.0) rotate(-90)" text-anchor="middle" font-family="Arial, Helvetica, sans-serif" font-size="16">Identification accuracy</text>
<polyline points="78.00,276.51 110.17,68.11 142.33,40.24 206.67,33.20 271.00,32.26 335.33,31.16 399.67,28.81 464.00,28.66" fill="none" stroke="#000000" stroke-width="3"/>
<polyline points="78.00,276.51 110.17,130.59 142.33,57.94 206.67,36.17 271.00,32.89 335.33,29.28 399.67,30.54 464.00,28.50" fill="none" stroke="#0000ff" stroke-width="3" stroke-dasharray="9 7"/>
<polyline points="78.00,276.51 110.17,67.96 142.33,47.45 206.67,35.39 271.00,31.95 335.33,31.01 399.67,29.60 464.00,28.34" fill="none" stroke="#ff0000" stroke-width="3"/>
<polyline points="78.00,276.51 110.17,61.54 142.33,41.81 206.67,32.26 271.00,32.10 335.33,29.91 399.67,28.81 464.00,28.81" fill="none" stroke="#b00020" stroke-width="3" stroke-dasharray="2 3"/>
<polyline points="78.00,276.51 110.17,68.11 142.33,40.24 206.67,33.20 271.00,32.26 335.33,31.16 399.67,28.81 464.00,28.66" fill="none" stroke="#ff00ff" stroke-width="3" stroke-dasharray="8 5"/>
<circle cx="78.00" cy="276.51" r="3.3" fill="#ff00ff" stroke="#ff00ff"/>
<circle cx="110.17" cy="68.11" r="3.3" fill="#ff00ff" stroke="#ff00ff"/>
<circle cx="142.33" cy="40.24" r="3.3" fill="#ff00ff" stroke="#ff00ff"/>
<circle cx="206.67" cy="33.20" r="3.3" fill="#ff00ff" stroke="#ff00ff"/>
<circle cx="271.00" cy="32.26" r="3.3" fill="#ff00ff" stroke="#ff00ff"/>
<circle cx="335.33" cy="31.16" r="3.3" fill="#ff00ff" stroke="#ff00ff"/>
<circle cx="399.67" cy="28.81" r="3.3" fill="#ff00ff" stroke="#ff00ff"/>
<circle cx="464.00" cy="28.66" r="3.3" fill="#ff00ff" stroke="#ff00ff"/>
<polyline points="78.00,276.51 110.17,58.56 142.33,45.25 206.67,34.45 271.00,32.42 335.33,30.85 399.67,27.72 464.00,28.34" fill="none" stroke="#00aa00" stroke-width="3"/>
<rect x="74.90" y="273.41" width="6.2" height="6.2" fill="#00aa00" stroke="#00aa00"/>
<rect x="107.07" y="55.46" width="6.2" height="6.2" fill="#00aa00" stroke="#00aa00"/>
<rect x="139.23" y="42.15" width="6.2" height="6.2" fill="#00aa00" stroke="#00aa00"/>
<rect x="203.57" y="31.35" width="6.2" height="6.2" fill="#00aa00" stroke="#00aa00"/>
<rect x="267.90" y="29.32" width="6.2" height="6.2" fill="#00aa00" stroke="#00aa00"/>
<rect x="332.23" y="27.75" width="6.2" height="6.2" fill="#00aa00" stroke="#00aa00"/>
<rect x="396.57" y="24.62" width="6.2" height="6.2" fill="#00aa00" stroke="#00aa00"/>
<rect x="460.90" y="25.24" width="6.2" height="6.2" fill="#00aa00" stroke="#00aa00"/>
<polyline points="78.00,276.51 110.17,68.11 142.33,40.24 206.67,33.20 271.00,32.26 335.33,31.16 399.67,28.81 464.00,28.66" fill="none" stroke="#00a6d6" stroke-width="3" stroke-dasharray="7 4"/>
<polygon points="78.00,272.51 74.00,280.01 82.00,280.01" fill="#00a6d6" stroke="#00a6d6"/>
<polygon points="110.17,64.11 106.17,71.61 114.17,71.61" fill="#00a6d6" stroke="#00a6d6"/>
<polygon points="142.33,36.24 138.33,43.74 146.33,43.74" fill="#00a6d6" stroke="#00a6d6"/>
<polygon points="206.67,29.20 202.67,36.70 210.67,36.70" fill="#00a6d6" stroke="#00a6d6"/>
<polygon points="271.00,28.26 267.00,35.76 275.00,35.76" fill="#00a6d6" stroke="#00a6d6"/>
<polygon points="335.33,27.16 331.33,34.66 339.33,34.66" fill="#00a6d6" stroke="#00a6d6"/>
<polygon points="399.67,24.81 395.67,32.31 403.67,32.31" fill="#00a6d6" stroke="#00a6d6"/>
<polygon points="464.00,24.66 460.00,32.16 468.00,32.16" fill="#00a6d6" stroke="#00a6d6"/>
<polyline points="78.00,276.51 110.17,41.97 142.33,37.43 206.67,32.10 271.00,31.95 335.33,30.69 399.67,28.97 464.00,27.87" fill="none" stroke="#ff8c00" stroke-width="3"/>
<polygon points="78.00,272.31 73.80,276.51 78.00,280.71 82.20,276.51" fill="#ff8c00" stroke="#ff8c00"/>
<polygon points="110.17,37.77 105.97,41.97 110.17,46.17 114.37,41.97" fill="#ff8c00" stroke="#ff8c00"/>
<polygon points="142.33,33.23 138.13,37.43 142.33,41.63 146.53,37.43" fill="#ff8c00" stroke="#ff8c00"/>
<polygon points="206.67,27.90 202.47,32.10 206.67,36.30 210.87,32.10" fill="#ff8c00" stroke="#ff8c00"/>
<polygon points="271.00,27.75 266.80,31.95 271.00,36.15 275.20,31.95" fill="#ff8c00" stroke="#ff8c00"/>
<polygon points="335.33,26.49 331.13,30.69 335.33,34.89 339.53,30.69" fill="#ff8c00" stroke="#ff8c00"/>
<polygon points="399.67,24.77 395.47,28.97 399.67,33.17 403.87,28.97" fill="#ff8c00" stroke="#ff8c00"/>
<polygon points="464.00,23.67 459.80,27.87 464.00,32.07 468.20,27.87" fill="#ff8c00" stroke="#ff8c00"/>
<rect x="278" y="104" width="174" height="164" fill="#ffffff" stroke="#000000" stroke-width="1"/>
<line x1="288" y1="121" x2="320" y2="121" stroke="#000000" stroke-width="3"/>
<text x="326" y="126" font-family="Arial, Helvetica, sans-serif" font-size="12">Proposed FL</text>
<line x1="288" y1="139" x2="320" y2="139" stroke="#0000ff" stroke-width="3" stroke-dasharray="9 7"/>
<text x="326" y="144" font-family="Arial, Helvetica, sans-serif" font-size="12">Baseline a)</text>
<line x1="288" y1="157" x2="320" y2="157" stroke="#ff0000" stroke-width="3"/>
<text x="326" y="162" font-family="Arial, Helvetica, sans-serif" font-size="12">Baseline b)</text>
<line x1="288" y1="175" x2="320" y2="175" stroke="#b00020" stroke-width="3" stroke-dasharray="2 3"/>
<text x="326" y="180" font-family="Arial, Helvetica, sans-serif" font-size="12">Baseline c)</text>
<line x1="288" y1="193" x2="320" y2="193" stroke="#ff00ff" stroke-width="3" stroke-dasharray="8 5"/>
<circle cx="304.00" cy="193.00" r="3.3" fill="#ff00ff" stroke="#ff00ff"/>
<text x="326" y="198" font-family="Arial, Helvetica, sans-serif" font-size="12">LP-Relax+Proj.</text>
<line x1="288" y1="211" x2="320" y2="211" stroke="#00aa00" stroke-width="3"/>
<rect x="300.90" y="207.90" width="6.2" height="6.2" fill="#00aa00" stroke="#00aa00"/>
<text x="326" y="216" font-family="Arial, Helvetica, sans-serif" font-size="12">Hybrid-Greedy</text>
<line x1="288" y1="229" x2="320" y2="229" stroke="#00a6d6" stroke-width="3" stroke-dasharray="7 4"/>
<polygon points="304.00,225.00 300.00,232.50 308.00,232.50" fill="#00a6d6" stroke="#00a6d6"/>
<text x="326" y="234" font-family="Arial, Helvetica, sans-serif" font-size="12">Continuous-LP</text>
<line x1="288" y1="247" x2="320" y2="247" stroke="#ff8c00" stroke-width="3"/>
<polygon points="304.00,242.80 299.80,247.00 304.00,251.20 308.20,247.00" fill="#ff8c00" stroke="#ff8c00"/>
<text x="326" y="252" font-family="Arial, Helvetica, sans-serif" font-size="12">Soft-KKT tau=1</text>
<text x="78" y="344" font-family="Times New Roman, serif" font-size="14">Fig. 7. Identification accuracy as the number of iterations varies.</text>
</svg>