<svg xmlns="http://www.w3.org/2000/svg" width="540" height="390" viewBox="0 0 540 390">
<rect width="100%" height="100%" fill="#ffffff"/>
<rect x="78" y="22" width="386" height="260" fill="#ffffff" stroke="#000000" stroke-width="1"/>
<line x1="78" y1="282.00" x2="464" y2="282.00" stroke="#d9d9d9" stroke-width="1"/>
<text x="69" y="286.00" text-anchor="end" font-family="Arial, Helvetica, sans-serif" font-size="14">0.1</text>
<line x1="78" y1="230.00" x2="464" y2="230.00" stroke="#d9d9d9" stroke-width="1"/>
<text x="69" y="234.00" text-anchor="end" font-family="Arial, Helvetica, sans-serif" font-size="14">0.264</text>
<line x1="78" y1="178.00" x2="464" y2="178.00" stroke="#d9d9d9" stroke-width="1"/>
<text x="69" y="182.00" text-anchor="end" font-family="Arial, Helvetica, sans-serif" font-size="14">0.428</text>
<line x1="78" y1="126.00" x2="464" y2="126.00" stroke="#d9d9d9" stroke-width="1"/>
<text x="69" y="130.00" text-anchor="end" font-family="Arial, Helvetica, sans-serif" font-size="14">0.592</text>
<line x1="78" y1="74.00" x2="464" y2="74.00" stroke="#d9d9d9" stroke-width="1"/>
<text x="69" y="78.00" text-anchor="end" font-family="Arial, Helvetica, sans-serif" font-size="14">0.756</text>
<line x1="78" y1="22.00" x2="464" y2="22.00" stroke="#d9d9d9" stroke-width="1"/>
<text x="69" y="26.00" text-anchor="end" font-family="Arial, Helvetica, sans-serif" font-size="14">0.92</text>
<line x1="78.00" y1="22" x2="78.00" y2="282" stroke="#d9d9d9" stroke-width="1"/>
<text x="78.00" y="305" text-anchor="middle" font-family="Arial, Helvetica, sans-serif" font-size="14">3</text>
<line x1="206.67" y1="22" x2="206.67" y2="282" stroke="#d9d9d9" stroke-width="1"/>
<text x="206.67" y="305" text-anchor="middle" font-family="Arial, Helvetica, sans-serif" font-size="14">6</text>
<line x1="335.33" y1="22" x2="335.33" y2="282" stroke="#d9d9d9" stroke-width="1"/>
<text x="335.33" y="305" text-anchor="middle" font-family="Arial, Helvetica, sans-serif" font-size="14">9</text>
<line x1="464.00" y1="22" x2="464.00" y2="282" stroke="#d9d9d9" stroke-width="1"/>
<text x="464.00" y="305" text-anchor="middle" font-family="Arial, Helvetica, sans-serif" font-size="14">12</text>
<text x="271.0" y="329" text-anchor="middle" font-family="Arial, Helvetica, sans-serif" font-size="16">Number of RBs</text>
<text transform="translate(22 152.0) rotate(-90)" text-anchor="middle" font-family="Arial, Helvetica, sans-serif" font-size="16">Identification accuracy</text>
<polyline points="78.00,216.59 206.67,116.27 335.33,82.50 464.00,59.31" fill="none" stroke="#000000" stroke-width="3"/>
<polyline points="78.00,183.48 206.67,118.46 335.33,104.51 464.00,98.29" fill="none" stroke="#0000ff" stroke-width="3" stroke-dasharray="9 7"/>
<polyline points="78.00,191.55 206.67,172.39 335.33,81.32 464.00,51.58" fill="none" stroke="#ff0000" stroke-width="3"/>
<polyline points="78.00,191.89 206.67,107.70 335.33,86.03 464.00,50.40" fill="none" stroke="#b00020" stroke-width="3" stroke-dasharray="2 3"/>
<polyline points="78.00,216.59 206.67,116.27 335.33,82.50 464.00,59.31" fill="none" stroke="#ff00ff" stroke-width="3" stroke-dasharray="8 5"/>
<circle cx="78.00" cy="216.59" r="3.3" fill="#ff00ff" stroke="#ff00ff"/>
<circle cx="206.67" cy="116.27" r="3.3" fill="#ff00ff" stroke="#ff00ff"/>
<circle cx="335.33" cy="82.50" r="3.3" fill="#ff00ff" stroke="#ff00ff"/>
<circle cx="464.00" cy="59.31" r="3.3" fill="#ff00ff" stroke="#ff00ff"/>
<polyline points="78.00,201.80 206.67,139.63 335.33,64.01 464.00,34.78" fill="none" stroke="#00aa00" stroke-width="3"/>
<rect x="74.90" y="198.70" width="6.2" height="6.2" fill="#00aa00" stroke="#00aa00"/>
<rect x="203.57" y="136.53" width="6.2" height="6.2" fill="#00aa00" stroke="#00aa00"/>
<rect x="332.23" y="60.91" width="6.2" height="6.2" fill="#00aa00" stroke="#00aa00"/>
<rect x="460.90" y="31.68" width="6.2" height="6.2" fill="#00aa00" stroke="#00aa00"/>
<polyline points="78.00,216.59 206.67,116.27 335.33,82.50 464.00,59.31" fill="none" stroke="#00a6d6" stroke-width="3" stroke-dasharray="7 4"/>
<polygon points="78.00,212.59 74.00,220.09 82.00,220.09" fill="#00a6d6" stroke="#00a6d6"/>
<polygon points="206.67,112.27 202.67,119.77 210.67,119.77" fill="#00a6d6" stroke="#00a6d6"/>
<polygon points="335.33,78.50 331.33,86.00 339.33,86.00" fill="#00a6d6" stroke="#00a6d6"/>
<polygon points="464.00,55.31 460.00,62.81 468.00,62.81" fill="#00a6d6" stroke="#00a6d6"/>
<polyline points="78.00,127.19 206.67,85.19 335.33,50.57 464.00,44.19" fill="none" stroke="#ff8c00" stroke-width="3"/>
<polygon points="78.00,122.99 73.80,127.19 78.00,131.39 82.20,127.19" fill="#ff8c00" stroke="#ff8c00"/>
<polygon points="206.67,80.99 202.47,85.19 206.67,89.39 210.87,85.19" fill="#ff8c00" stroke="#ff8c00"/>
<polygon points="335.33,46.37 331.13,50.57 335.33,54.77 339.53,50.57" fill="#ff8c00" stroke="#ff8c00"/>
<polygon points="464.00,39.99 459.80,44.19 464.00,48.39 468.20,44.19" fill="#ff8c00" stroke="#ff8c00"/>
<rect x="278" y="104" width="174" height="164" fill="#ffffff" stroke="#000000" stroke-width="1"/>
<line x1="288" y1="121" x2="320" y2="121" stroke="#000000" stroke-width="3"/>
<text x="326" y="126" font-family="Arial, Helvetica, sans-serif" font-size="12">Proposed FL</text>
<line x1="288" y1="139" x2="320" y2="139" stroke="#0000ff" stroke-width="3" stroke-dasharray="9 7"/>
<text x="326" y="144" font-family="Arial, Helvetica, sans-serif" font-size="12">Baseline a)</text>
<line x1="288" y1="157" x2="320" y2="157" stroke="#ff0000" stroke-width="3"/>
<text x="326" y="162" font-family="Arial, Helvetica, sans-serif" font-size="12">Baseline b)</text>
<line x1="288" y1="175" x2="320" y2="175" stroke="#b00020" stroke-width="3" stroke-dasharray="2 3"/>
<text x="326" y="180" font-family="Arial, Helvetica, sans-serif" font-size="12">Baseline c)</text>
<line x1="288" y1="193" x2="320" y2="193" stroke="#ff00ff" stroke-width="3" stroke-dasharray="8 5"/>
<circle cx="304.00" cy="193.00" r="3.3" fill="#ff00ff" stroke="#ff00ff"/>
<text x="326" y="198" font-family="Arial, Helvetica, sans-serif" font-size="12">LP-Relax+Proj.</text>
<line x1="288" y1="211" x2="320" y2="211" stroke="#00aa00" stroke-width="3"/>
<rect x="300.90" y="207.90" width="6.2" height="6.2" fill="#00aa00" stroke="#00aa00"/>
<text x="326" y="216" font-family="Arial, Helvetica, sans-serif" font-size="12">Hybrid-Greedy</text>
<line x1="288" y1="229" x2="320" y2="229" stroke="#00a6d6" stroke-width="3" stroke-dasharray="7 4"/>
<polygon points="304.00,225.00 300.00,232.50 308.00,232.50" fill="#00a6d6" stroke="#00a6d6"/>
<text x="326" y="234" font-family="Arial, Helvetica, sans-serif" font-size="12">Continuous-LP</text>
<line x1="288" y1="247" x2="320" y2="247" stroke="#ff8c00" stroke-width="3"/>
<polygon points="304.00,242.80 299.80,247.00 304.00,251.20 308.20,247.00" fill="#ff8c00" stroke="#ff8c00"/>
<text x="326" y="252" font-family="Arial, Helvetica, sans-serif" font-size="12">Soft-KKT tau=1</text>
<text x="78" y="344" font-family="Times New Roman, serif" font-size="14">Fig. 9. Identification accuracy changes as the number of RBs varies (U =</text>
<text x="78" y="361" font-family="Times New Roman, serif" font-size="14">15).</text>
</svg>