<svg xmlns="http://www.w3.org/2000/svg" width="540" height="390" viewBox="0 0 540 390">
<rect width="100%" height="100%" fill="#ffffff"/>
<rect x="78" y="22" width="386" height="260" fill="#ffffff" stroke="#000000" stroke-width="1"/>
<line x1="78" y1="282.00" x2="464" y2="282.00" stroke="#d9d9d9" stroke-width="1"/>
<text x="69" y="286.00" text-anchor="end" font-family="Arial, Helvetica, sans-serif" font-size="14">-0.000878</text>
<line x1="78" y1="230.00" x2="464" y2="230.00" stroke="#d9d9d9" stroke-width="1"/>
<text x="69" y="234.00" text-anchor="end" font-family="Arial, Helvetica, sans-serif" font-size="14">0.00242</text>
<line x1="78" y1="178.00" x2="464" y2="178.00" stroke="#d9d9d9" stroke-width="1"/>
<text x="69" y="182.00" text-anchor="end" font-family="Arial, Helvetica, sans-serif" font-size="14">0.00571</text>
<line x1="78" y1="126.00" x2="464" y2="126.00" stroke="#d9d9d9" stroke-width="1"/>
<text x="69" y="130.00" text-anchor="end" font-family="Arial, Helvetica, sans-serif" font-size="14">0.009</text>
<line x1="78" y1="74.00" x2="464" y2="74.00" stroke="#d9d9d9" stroke-width="1"/>
<text x="69" y="78.00" text-anchor="end" font-family="Arial, Helvetica, sans-serif" font-size="14">0.0123</text>
<line x1="78" y1="22.00" x2="464" y2="22.00" stroke="#d9d9d9" stroke-width="1"/>
<text x="69" y="26.00" text-anchor="end" font-family="Arial, Helvetica, sans-serif" font-size="14">0.0156</text>
<line x1="78.00" y1="22" x2="78.00" y2="282" stroke="#d9d9d9" stroke-width="1"/>
<text x="78.00" y="305" text-anchor="middle" font-family="Arial, Helvetica, sans-serif" font-size="14">10</text>
<line x1="174.50" y1="22" x2="174.50" y2="282" stroke="#d9d9d9" stroke-width="1"/>
<text x="174.50" y="305" text-anchor="middle" font-family="Arial, Helvetica, sans-serif" font-size="14">20</text>
<line x1="271.00" y1="22" x2="271.00" y2="282" stroke="#d9d9d9" stroke-width="1"/>
<text x="271.00" y="305" text-anchor="middle" font-family="Arial, Helvetica, sans-serif" font-size="14">30</text>
<line x1="367.50" y1="22" x2="367.50" y2="282" stroke="#d9d9d9" stroke-width="1"/>
<text x="367.50" y="305" text-anchor="middle" font-family="Arial, Helvetica, sans-serif" font-size="14">40</text>
<line x1="464.00" y1="22" x2="464.00" y2="282" stroke="#d9d9d9" stroke-width="1"/>
<text x="464.00" y="305" text-anchor="middle" font-family="Arial, Helvetica, sans-serif" font-size="14">50</text>
<text x="271.0" y="329" text-anchor="middle" font-family="Arial, Helvetica, sans-serif" font-size="16">Number of data samples per user</text>
<text transform="translate(22 152.0) rotate(-90)" text-anchor="middle" font-family="Arial, Helvetica, sans-serif" font-size="16">Value of the loss function</text>
<polyline points="78.00,180.71 174.50,239.27 271.00,264.07 367.50,251.87 464.00,253.17" fill="none" stroke="#000000" stroke-width="3"/>
<polyline points="78.00,39.93 174.50,206.21 271.00,240.12 367.50,254.41 464.00,258.05" fill="none" stroke="#0000ff" stroke-width="3" stroke-dasharray="9 7"/>
<polyline points="78.00,211.76 174.50,222.02 271.00,256.02 367.50,252.56 464.00,257.08" fill="none" stroke="#ff0000" stroke-width="3"/>
<polyline points="78.00,180.71 174.50,239.27 271.00,264.07 367.50,251.87 464.00,253.17" fill="none" stroke="#b00020" stroke-width="3" stroke-dasharray="2 3"/>
<polyline points="78.00,180.71 174.50,239.27 271.00,264.07 367.50,251.87 464.00,253.17" fill="none" stroke="#ff00ff" stroke-width="3" stroke-dasharray="8 5"/>
<circle cx="78.00" cy="180.71" r="3.3" fill="#ff00ff" stroke="#ff00ff"/>
<circle cx="174.50" cy="239.27" r="3.3" fill="#ff00ff" stroke="#ff00ff"/>
<circle cx="271.00" cy="264.07" r="3.3" fill="#ff00ff" stroke="#ff00ff"/>
<circle cx="367.50" cy="251.87" r="3.3" fill="#ff00ff" stroke="#ff00ff"/>
<circle cx="464.00" cy="253.17" r="3.3" fill="#ff00ff" stroke="#ff00ff"/>
<polyline points="78.00,197.58 174.50,257.06 271.00,262.15 367.50,248.50 464.00,253.73" fill="none" stroke="#00aa00" stroke-width="3"/>
<rect x="74.90" y="194.48" width="6.2" height="6.2" fill="#00aa00" stroke="#00aa00"/>
<rect x="171.40" y="253.96" width="6.2" height="6.2" fill="#00aa00" stroke="#00aa00"/>
<rect x="267.90" y="259.05" width="6.2" height="6.2" fill="#00aa00" stroke="#00aa00"/>
<rect x="364.40" y="245.40" width="6.2" height="6.2" fill="#00aa00" stroke="#00aa00"/>
<rect x="460.90" y="250.63" width="6.2" height="6.2" fill="#00aa00" stroke="#00aa00"/>
<polyline points="78.00,180.71 174.50,239.27 271.00,264.07 367.50,251.87 464.00,253.17" fill="none" stroke="#00a6d6" stroke-width="3" stroke-dasharray="7 4"/>
<polygon points="78.00,176.71 74.00,184.21 82.00,184.21" fill="#00a6d6" stroke="#00a6d6"/>
<polygon points="174.50,235.27 170.50,242.77 178.50,242.77" fill="#00a6d6" stroke="#00a6d6"/>
<polygon points="271.00,260.07 267.00,267.57 275.00,267.57" fill="#00a6d6" stroke="#00a6d6"/>
<polygon points="367.50,247.87 363.50,255.37 371.50,255.37" fill="#00a6d6" stroke="#00a6d6"/>
<polygon points="464.00,249.17 460.00,256.67 468.00,256.67" fill="#00a6d6" stroke="#00a6d6"/>
<polyline points="78.00,215.47 174.50,236.05 271.00,262.89 367.50,257.89 464.00,255.45" fill="none" stroke="#ff8c00" stroke-width="3"/>
<polygon points="78.00,211.27 73.80,215.47 78.00,219.67 82.20,215.47" fill="#ff8c00" stroke="#ff8c00"/>
<polygon points="174.50,231.85 170.30,236.05 174.50,240.25 178.70,236.05" fill="#ff8c00" stroke="#ff8c00"/>
<polygon points="271.00,258.69 266.80,262.89 271.00,267.09 275.20,262.89" fill="#ff8c00" stroke="#ff8c00"/>
<polygon points="367.50,253.69 363.30,257.89 367.50,262.09 371.70,257.89" fill="#ff8c00" stroke="#ff8c00"/>
<polygon points="464.00,251.25 459.80,255.45 464.00,259.65 468.20,255.45" fill="#ff8c00" stroke="#ff8c00"/>
<rect x="278" y="36" width="174" height="164" fill="#ffffff" stroke="#000000" stroke-width="1"/>
<line x1="288" y1="53" x2="320" y2="53" stroke="#000000" stroke-width="3"/>
<text x="326" y="58" font-family="Arial, Helvetica, sans-serif" font-size="12">Proposed FL</text>
<line x1="288" y1="71" x2="320" y2="71" stroke="#0000ff" stroke-width="3" stroke-dasharray="9 7"/>
<text x="326" y="76" font-family="Arial, Helvetica, sans-serif" font-size="12">Baseline a)</text>
<line x1="288" y1="89" x2="320" y2="89" stroke="#ff0000" stroke-width="3"/>
<text x="326" y="94" font-family="Arial, Helvetica, sans-serif" font-size="12">Baseline b)</text>
<line x1="288" y1="107" x2="320" y2="107" stroke="#b00020" stroke-width="3" stroke-dasharray="2 3"/>
<text x="326" y="112" font-family="Arial, Helvetica, sans-serif" font-size="12">Baseline c)</text>
<line x1="288" y1="125" x2="320" y2="125" stroke="#ff00ff" stroke-width="3" stroke-dasharray="8 5"/>
<circle cx="304.00" cy="125.00" r="3.3" fill="#ff00ff" stroke="#ff00ff"/>
<text x="326" y="130" font-family="Arial, Helvetica, sans-serif" font-size="12">LP-Relax+Proj.</text>
<line x1="288" y1="143" x2="320" y2="143" stroke="#00aa00" stroke-width="3"/>
<rect x="300.90" y="139.90" width="6.2" height="6.2" fill="#00aa00" stroke="#00aa00"/>
<text x="326" y="148" font-family="Arial, Helvetica, sans-serif" font-size="12">Hybrid-Greedy</text>
<line x1="288" y1="161" x2="320" y2="161" stroke="#00a6d6" stroke-width="3" stroke-dasharray="7 4"/>
<polygon points="304.00,157.00 300.00,164.50 308.00,164.50" fill="#00a6d6" stroke="#00a6d6"/>
<text x="326" y="166" font-family="Arial, Helvetica, sans-serif" font-size="12">Continuous-LP</text>
<line x1="288" y1="179" x2="320" y2="179" stroke="#ff8c00" stroke-width="3"/>
<polygon points="304.00,174.80 299.80,179.00 304.00,183.20 308.20,179.00" fill="#ff8c00" stroke="#ff8c00"/>
<text x="326" y="184" font-family="Arial, Helvetica, sans-serif" font-size="12">Soft-KKT tau=1</text>
<text x="78" y="344" font-family="Times New Roman, serif" font-size="14">Fig. 4. Training loss as the number of data samples per user varies.</text>
</svg>