<svg xmlns="http://www.w3.org/2000/svg" width="920" height="560" viewBox="0 0 920 560">
<rect width="100%" height="100%" fill="#ffffff"/>
<text x="90" y="30" font-family="Arial, sans-serif" font-size="22" font-weight="700">Paper Fig.4-style Linear Loss</text>
<line x1="90" y1="475" x2="670" y2="475" stroke="#222" stroke-width="1.2"/>
<line x1="90" y1="55" x2="90" y2="475" stroke="#222" stroke-width="1.2"/>
<line x1="90" y1="475.00" x2="670" y2="475.00" stroke="#e5e5e5"/>
<text x="78" y="479.00" text-anchor="end" font-family="Arial, sans-serif" font-size="12">0</text>
<line x1="90" y1="391.00" x2="670" y2="391.00" stroke="#e5e5e5"/>
<text x="78" y="395.00" text-anchor="end" font-family="Arial, sans-serif" font-size="12">0.00312</text>
<line x1="90" y1="307.00" x2="670" y2="307.00" stroke="#e5e5e5"/>
<text x="78" y="311.00" text-anchor="end" font-family="Arial, sans-serif" font-size="12">0.00624</text>
<line x1="90" y1="223.00" x2="670" y2="223.00" stroke="#e5e5e5"/>
<text x="78" y="227.00" text-anchor="end" font-family="Arial, sans-serif" font-size="12">0.00937</text>
<line x1="90" y1="139.00" x2="670" y2="139.00" stroke="#e5e5e5"/>
<text x="78" y="143.00" text-anchor="end" font-family="Arial, sans-serif" font-size="12">0.0125</text>
<line x1="90" y1="55.00" x2="670" y2="55.00" stroke="#e5e5e5"/>
<text x="78" y="59.00" text-anchor="end" font-family="Arial, sans-serif" font-size="12">0.0156</text>
<line x1="90.00" y1="475" x2="90.00" y2="480" stroke="#222"/>
<text x="90.00" y="499" text-anchor="middle" font-family="Arial, sans-serif" font-size="12">10</text>
<line x1="206.00" y1="475" x2="206.00" y2="480" stroke="#222"/>
<text x="206.00" y="499" text-anchor="middle" font-family="Arial, sans-serif" font-size="12">20</text>
<line x1="322.00" y1="475" x2="322.00" y2="480" stroke="#222"/>
<text x="322.00" y="499" text-anchor="middle" font-family="Arial, sans-serif" font-size="12">30</text>
<line x1="438.00" y1="475" x2="438.00" y2="480" stroke="#222"/>
<text x="438.00" y="499" text-anchor="middle" font-family="Arial, sans-serif" font-size="12">40</text>
<line x1="670.00" y1="475" x2="670.00" y2="480" stroke="#222"/>
<text x="670.00" y="499" text-anchor="middle" font-family="Arial, sans-serif" font-size="12">60</text>
<polyline points="90.00,326.02 206.00,425.82 322.00,468.07 438.00,447.28 670.00,456.62" fill="none" stroke="#1f77b4" stroke-width="2.4"/>
<circle cx="90.00" cy="326.02" r="3.5" fill="#1f77b4"/>
<circle cx="206.00" cy="425.82" r="3.5" fill="#1f77b4"/>
<circle cx="322.00" cy="468.07" r="3.5" fill="#1f77b4"/>
<circle cx="438.00" cy="447.28" r="3.5" fill="#1f77b4"/>
<circle cx="670.00" cy="456.62" r="3.5" fill="#1f77b4"/>
<line x1="705" y1="79" x2="728" y2="79" stroke="#1f77b4" stroke-width="3"/>
<text x="736" y="83" font-family="Arial, sans-serif" font-size="12">Continuous-LP(HiGHS)</text>
<polyline points="90.00,354.77 206.00,456.13 322.00,464.81 438.00,441.55 670.00,454.75" fill="none" stroke="#d62728" stroke-width="2.4"/>
<circle cx="90.00" cy="354.77" r="3.5" fill="#d62728"/>
<circle cx="206.00" cy="456.13" r="3.5" fill="#d62728"/>
<circle cx="322.00" cy="464.81" r="3.5" fill="#d62728"/>
<circle cx="438.00" cy="441.55" r="3.5" fill="#d62728"/>
<circle cx="670.00" cy="454.75" r="3.5" fill="#d62728"/>
<line x1="705" y1="101" x2="728" y2="101" stroke="#d62728" stroke-width="3"/>
<text x="736" y="105" font-family="Arial, sans-serif" font-size="12">Hybrid-Score-Greedy(alpha=0.25)</text>
<polyline points="90.00,326.02 206.00,425.82 322.00,468.07 438.00,447.28 670.00,456.62" fill="none" stroke="#2ca02c" stroke-width="2.4"/>
<circle cx="90.00" cy="326.02" r="3.5" fill="#2ca02c"/>
<circle cx="206.00" cy="425.82" r="3.5" fill="#2ca02c"/>
<circle cx="322.00" cy="468.07" r="3.5" fill="#2ca02c"/>
<circle cx="438.00" cy="447.28" r="3.5" fill="#2ca02c"/>
<circle cx="670.00" cy="456.62" r="3.5" fill="#2ca02c"/>
<line x1="705" y1="123" x2="728" y2="123" stroke="#2ca02c" stroke-width="3"/>
<text x="736" y="127" font-family="Arial, sans-serif" font-size="12">LP-Relax+Projection</text>
<polyline points="90.00,326.02 206.00,425.82 322.00,468.07 438.00,447.28 670.00,456.62" fill="none" stroke="#9467bd" stroke-width="2.4"/>
<circle cx="90.00" cy="326.02" r="3.5" fill="#9467bd"/>
<circle cx="206.00" cy="425.82" r="3.5" fill="#9467bd"/>
<circle cx="322.00" cy="468.07" r="3.5" fill="#9467bd"/>
<circle cx="438.00" cy="447.28" r="3.5" fill="#9467bd"/>
<circle cx="670.00" cy="456.62" r="3.5" fill="#9467bd"/>
<line x1="705" y1="145" x2="728" y2="145" stroke="#9467bd" stroke-width="3"/>
<text x="736" y="149" font-family="Arial, sans-serif" font-size="12">Paper-Hungarian</text>
<polyline points="90.00,86.11 206.00,369.47 322.00,427.26 438.00,451.62 670.00,456.64" fill="none" stroke="#ff7f0e" stroke-width="2.4"/>
<circle cx="90.00" cy="86.11" r="3.5" fill="#ff7f0e"/>
<circle cx="206.00" cy="369.47" r="3.5" fill="#ff7f0e"/>
<circle cx="322.00" cy="427.26" r="3.5" fill="#ff7f0e"/>
<circle cx="438.00" cy="451.62" r="3.5" fill="#ff7f0e"/>
<circle cx="670.00" cy="456.64" r="3.5" fill="#ff7f0e"/>
<line x1="705" y1="167" x2="728" y2="167" stroke="#ff7f0e" stroke-width="3"/>
<text x="736" y="171" font-family="Arial, sans-serif" font-size="12">Paper-OptUser-RandomRB</text>
<polyline points="90.00,378.94 206.00,396.42 322.00,454.35 438.00,448.46 670.00,455.27" fill="none" stroke="#17becf" stroke-width="2.4"/>
<circle cx="90.00" cy="378.94" r="3.5" fill="#17becf"/>
<circle cx="206.00" cy="396.42" r="3.5" fill="#17becf"/>
<circle cx="322.00" cy="454.35" r="3.5" fill="#17becf"/>
<circle cx="438.00" cy="448.46" r="3.5" fill="#17becf"/>
<circle cx="670.00" cy="455.27" r="3.5" fill="#17becf"/>
<line x1="705" y1="189" x2="728" y2="189" stroke="#17becf" stroke-width="3"/>
<text x="736" y="193" font-family="Arial, sans-serif" font-size="12">Paper-RandomUserRB</text>
<polyline points="90.00,326.02 206.00,425.82 322.00,468.07 438.00,447.28 670.00,456.62" fill="none" stroke="#4d4d4d" stroke-width="2.4"/>
<circle cx="90.00" cy="326.02" r="3.5" fill="#4d4d4d"/>
<circle cx="206.00" cy="425.82" r="3.5" fill="#4d4d4d"/>
<circle cx="322.00" cy="468.07" r="3.5" fill="#4d4d4d"/>
<circle cx="438.00" cy="447.28" r="3.5" fill="#4d4d4d"/>
<circle cx="670.00" cy="456.62" r="3.5" fill="#4d4d4d"/>
<line x1="705" y1="211" x2="728" y2="211" stroke="#4d4d4d" stroke-width="3"/>
<text x="736" y="215" font-family="Arial, sans-serif" font-size="12">Paper-Wireless-PER</text>
<polyline points="90.00,385.26 206.00,420.32 322.00,466.06 438.00,457.54 670.00,459.47" fill="none" stroke="#1f77b4" stroke-width="2.4"/>
<circle cx="90.00" cy="385.26" r="3.5" fill="#1f77b4"/>
<circle cx="206.00" cy="420.32" r="3.5" fill="#1f77b4"/>
<circle cx="322.00" cy="466.06" r="3.5" fill="#1f77b4"/>
<circle cx="438.00" cy="457.54" r="3.5" fill="#1f77b4"/>
<circle cx="670.00" cy="459.47" r="3.5" fill="#1f77b4"/>
<line x1="705" y1="233" x2="728" y2="233" stroke="#1f77b4" stroke-width="3"/>
<text x="736" y="237" font-family="Arial, sans-serif" font-size="12">Soft-Entropy-KKT(tau=1)</text>
<text x="380.0" y="532" text-anchor="middle" font-family="Arial, sans-serif" font-size="14">Samples per user</text>
<text transform="translate(24 265.0) rotate(-90)" text-anchor="middle" font-family="Arial, sans-serif" font-size="14">Validation MSE</text>
</svg>