<svg xmlns="http://www.w3.org/2000/svg" width="920" height="560" viewBox="0 0 920 560">
<rect width="100%" height="100%" fill="#ffffff"/>
<text x="90" y="30" font-family="Arial, sans-serif" font-size="22" font-weight="700">Continuous Soft Linear Objective Gap by Users</text>
<line x1="90" y1="475" x2="670" y2="475" stroke="#222" stroke-width="1.2"/>
<line x1="90" y1="55" x2="90" y2="475" stroke="#222" stroke-width="1.2"/>
<line x1="90" y1="475.00" x2="670" y2="475.00" stroke="#e5e5e5"/>
<text x="78" y="479.00" text-anchor="end" font-family="Arial, sans-serif" font-size="12">0</text>
<line x1="90" y1="391.00" x2="670" y2="391.00" stroke="#e5e5e5"/>
<text x="78" y="395.00" text-anchor="end" font-family="Arial, sans-serif" font-size="12">135</text>
<line x1="90" y1="307.00" x2="670" y2="307.00" stroke="#e5e5e5"/>
<text x="78" y="311.00" text-anchor="end" font-family="Arial, sans-serif" font-size="12">270</text>
<line x1="90" y1="223.00" x2="670" y2="223.00" stroke="#e5e5e5"/>
<text x="78" y="227.00" text-anchor="end" font-family="Arial, sans-serif" font-size="12">404</text>
<line x1="90" y1="139.00" x2="670" y2="139.00" stroke="#e5e5e5"/>
<text x="78" y="143.00" text-anchor="end" font-family="Arial, sans-serif" font-size="12">539</text>
<line x1="90" y1="55.00" x2="670" y2="55.00" stroke="#e5e5e5"/>
<text x="78" y="59.00" text-anchor="end" font-family="Arial, sans-serif" font-size="12">674</text>
<line x1="90.00" y1="475" x2="90.00" y2="480" stroke="#222"/>
<text x="90.00" y="499" text-anchor="middle" font-family="Arial, sans-serif" font-size="12">10</text>
<line x1="131.43" y1="475" x2="131.43" y2="480" stroke="#222"/>
<text x="131.43" y="499" text-anchor="middle" font-family="Arial, sans-serif" font-size="12">15</text>
<line x1="172.86" y1="475" x2="172.86" y2="480" stroke="#222"/>
<text x="172.86" y="499" text-anchor="middle" font-family="Arial, sans-serif" font-size="12">20</text>
<line x1="255.71" y1="475" x2="255.71" y2="480" stroke="#222"/>
<text x="255.71" y="499" text-anchor="middle" font-family="Arial, sans-serif" font-size="12">30</text>
<line x1="421.43" y1="475" x2="421.43" y2="480" stroke="#222"/>
<text x="421.43" y="499" text-anchor="middle" font-family="Arial, sans-serif" font-size="12">50</text>
<line x1="670.00" y1="475" x2="670.00" y2="480" stroke="#222"/>
<text x="670.00" y="499" text-anchor="middle" font-family="Arial, sans-serif" font-size="12">80</text>
<polyline points="90.00,475.00 131.43,475.00 172.86,475.00 255.71,475.00 421.43,475.00 670.00,475.00" fill="none" stroke="#1f77b4" stroke-width="2.4"/>
<circle cx="90.00" cy="475.00" r="3.5" fill="#1f77b4"/>
<circle cx="131.43" cy="475.00" r="3.5" fill="#1f77b4"/>
<circle cx="172.86" cy="475.00" r="3.5" fill="#1f77b4"/>
<circle cx="255.71" cy="475.00" r="3.5" fill="#1f77b4"/>
<circle cx="421.43" cy="475.00" r="3.5" fill="#1f77b4"/>
<circle cx="670.00" cy="475.00" r="3.5" fill="#1f77b4"/>
<line x1="705" y1="79" x2="728" y2="79" stroke="#1f77b4" stroke-width="3"/>
<text x="736" y="83" font-family="Arial, sans-serif" font-size="12">Continuous-LP(HiGHS)</text>
<polyline points="90.00,475.00 131.43,475.00 172.86,475.00 255.71,475.00 421.43,475.00 670.00,475.00" fill="none" stroke="#d62728" stroke-width="2.4"/>
<circle cx="90.00" cy="475.00" r="3.5" fill="#d62728"/>
<circle cx="131.43" cy="475.00" r="3.5" fill="#d62728"/>
<circle cx="172.86" cy="475.00" r="3.5" fill="#d62728"/>
<circle cx="255.71" cy="475.00" r="3.5" fill="#d62728"/>
<circle cx="421.43" cy="475.00" r="3.5" fill="#d62728"/>
<circle cx="670.00" cy="475.00" r="3.5" fill="#d62728"/>
<line x1="705" y1="101" x2="728" y2="101" stroke="#d62728" stroke-width="3"/>
<text x="736" y="105" font-family="Arial, sans-serif" font-size="12">Hungarian(reference)</text>
<polyline points="90.00,459.17 131.43,472.37 172.86,474.34 255.71,474.77 421.43,474.90 670.00,474.94" fill="none" stroke="#2ca02c" stroke-width="2.4"/>
<circle cx="90.00" cy="459.17" r="3.5" fill="#2ca02c"/>
<circle cx="131.43" cy="472.37" r="3.5" fill="#2ca02c"/>
<circle cx="172.86" cy="474.34" r="3.5" fill="#2ca02c"/>
<circle cx="255.71" cy="474.77" r="3.5" fill="#2ca02c"/>
<circle cx="421.43" cy="474.90" r="3.5" fill="#2ca02c"/>
<circle cx="670.00" cy="474.94" r="3.5" fill="#2ca02c"/>
<line x1="705" y1="123" x2="728" y2="123" stroke="#2ca02c" stroke-width="3"/>
<text x="736" y="127" font-family="Arial, sans-serif" font-size="12">Soft-Entropy-KKT(tau=1)</text>
<polyline points="90.00,86.11 131.43,382.72 172.86,444.84 255.71,462.49 421.43,469.88 670.00,472.03" fill="none" stroke="#9467bd" stroke-width="2.4"/>
<circle cx="90.00" cy="86.11" r="3.5" fill="#9467bd"/>
<circle cx="131.43" cy="382.72" r="3.5" fill="#9467bd"/>
<circle cx="172.86" cy="444.84" r="3.5" fill="#9467bd"/>
<circle cx="255.71" cy="462.49" r="3.5" fill="#9467bd"/>
<circle cx="421.43" cy="469.88" r="3.5" fill="#9467bd"/>
<circle cx="670.00" cy="472.03" r="3.5" fill="#9467bd"/>
<line x1="705" y1="145" x2="728" y2="145" stroke="#9467bd" stroke-width="3"/>
<text x="736" y="149" font-family="Arial, sans-serif" font-size="12">Soft-Entropy-KKT(tau=25)</text>
<polyline points="90.00,401.32 131.43,459.64 172.86,470.48 255.71,473.11 421.43,474.29 670.00,474.59" fill="none" stroke="#ff7f0e" stroke-width="2.4"/>
<circle cx="90.00" cy="401.32" r="3.5" fill="#ff7f0e"/>
<circle cx="131.43" cy="459.64" r="3.5" fill="#ff7f0e"/>
<circle cx="172.86" cy="470.48" r="3.5" fill="#ff7f0e"/>
<circle cx="255.71" cy="473.11" r="3.5" fill="#ff7f0e"/>
<circle cx="421.43" cy="474.29" r="3.5" fill="#ff7f0e"/>
<circle cx="670.00" cy="474.59" r="3.5" fill="#ff7f0e"/>
<line x1="705" y1="167" x2="728" y2="167" stroke="#ff7f0e" stroke-width="3"/>
<text x="736" y="171" font-family="Arial, sans-serif" font-size="12">Soft-Entropy-KKT(tau=5)</text>
<text x="380.0" y="532" text-anchor="middle" font-family="Arial, sans-serif" font-size="14">Number of users</text>
<text transform="translate(24 265.0) rotate(-90)" text-anchor="middle" font-family="Arial, sans-serif" font-size="14">Linear objective gap (%)</text>
</svg>