<svg xmlns="http://www.w3.org/2000/svg" width="920" height="560" viewBox="0 0 920 560">
<rect width="100%" height="100%" fill="#ffffff"/>
<text x="90" y="30" font-family="Arial, sans-serif" font-size="22" font-weight="700">Runtime by Users</text>
<line x1="90" y1="475" x2="670" y2="475" stroke="#222" stroke-width="1.2"/>
<line x1="90" y1="55" x2="90" y2="475" stroke="#222" stroke-width="1.2"/>
<line x1="90" y1="475.00" x2="670" y2="475.00" stroke="#e5e5e5"/>
<text x="78" y="479.00" text-anchor="end" font-family="Arial, sans-serif" font-size="12">0</text>
<line x1="90" y1="391.00" x2="670" y2="391.00" stroke="#e5e5e5"/>
<text x="78" y="395.00" text-anchor="end" font-family="Arial, sans-serif" font-size="12">0.00261</text>
<line x1="90" y1="307.00" x2="670" y2="307.00" stroke="#e5e5e5"/>
<text x="78" y="311.00" text-anchor="end" font-family="Arial, sans-serif" font-size="12">0.00522</text>
<line x1="90" y1="223.00" x2="670" y2="223.00" stroke="#e5e5e5"/>
<text x="78" y="227.00" text-anchor="end" font-family="Arial, sans-serif" font-size="12">0.00783</text>
<line x1="90" y1="139.00" x2="670" y2="139.00" stroke="#e5e5e5"/>
<text x="78" y="143.00" text-anchor="end" font-family="Arial, sans-serif" font-size="12">0.0104</text>
<line x1="90" y1="55.00" x2="670" y2="55.00" stroke="#e5e5e5"/>
<text x="78" y="59.00" text-anchor="end" font-family="Arial, sans-serif" font-size="12">0.0131</text>
<line x1="90.00" y1="475" x2="90.00" y2="480" stroke="#222"/>
<text x="90.00" y="499" text-anchor="middle" font-family="Arial, sans-serif" font-size="12">10</text>
<line x1="131.43" y1="475" x2="131.43" y2="480" stroke="#222"/>
<text x="131.43" y="499" text-anchor="middle" font-family="Arial, sans-serif" font-size="12">15</text>
<line x1="172.86" y1="475" x2="172.86" y2="480" stroke="#222"/>
<text x="172.86" y="499" text-anchor="middle" font-family="Arial, sans-serif" font-size="12">20</text>
<line x1="255.71" y1="475" x2="255.71" y2="480" stroke="#222"/>
<text x="255.71" y="499" text-anchor="middle" font-family="Arial, sans-serif" font-size="12">30</text>
<line x1="421.43" y1="475" x2="421.43" y2="480" stroke="#222"/>
<text x="421.43" y="499" text-anchor="middle" font-family="Arial, sans-serif" font-size="12">50</text>
<line x1="670.00" y1="475" x2="670.00" y2="480" stroke="#222"/>
<text x="670.00" y="499" text-anchor="middle" font-family="Arial, sans-serif" font-size="12">80</text>
<polyline points="90.00,270.85 131.43,313.04 172.86,288.82 255.71,312.66 421.43,286.97 670.00,282.24" fill="none" stroke="#1f77b4" stroke-width="2.4"/>
<circle cx="90.00" cy="270.85" r="3.5" fill="#1f77b4"/>
<circle cx="131.43" cy="313.04" r="3.5" fill="#1f77b4"/>
<circle cx="172.86" cy="288.82" r="3.5" fill="#1f77b4"/>
<circle cx="255.71" cy="312.66" r="3.5" fill="#1f77b4"/>
<circle cx="421.43" cy="286.97" r="3.5" fill="#1f77b4"/>
<circle cx="670.00" cy="282.24" r="3.5" fill="#1f77b4"/>
<line x1="705" y1="79" x2="728" y2="79" stroke="#1f77b4" stroke-width="3"/>
<text x="736" y="83" font-family="Arial, sans-serif" font-size="12">Entropy-Relax(tau=0.1)+Greedy</text>
<polyline points="90.00,239.18 131.43,236.53 172.86,330.55 255.71,356.05 421.43,239.98 670.00,300.85" fill="none" stroke="#d62728" stroke-width="2.4"/>
<circle cx="90.00" cy="239.18" r="3.5" fill="#d62728"/>
<circle cx="131.43" cy="236.53" r="3.5" fill="#d62728"/>
<circle cx="172.86" cy="330.55" r="3.5" fill="#d62728"/>
<circle cx="255.71" cy="356.05" r="3.5" fill="#d62728"/>
<circle cx="421.43" cy="239.98" r="3.5" fill="#d62728"/>
<circle cx="670.00" cy="300.85" r="3.5" fill="#d62728"/>
<line x1="705" y1="101" x2="728" y2="101" stroke="#d62728" stroke-width="3"/>
<text x="736" y="105" font-family="Arial, sans-serif" font-size="12">Entropy-Relax(tau=0.1)+Projection</text>
<polyline points="90.00,233.59 131.43,226.16 172.86,299.56 255.71,308.76 421.43,291.17 670.00,260.10" fill="none" stroke="#2ca02c" stroke-width="2.4"/>
<circle cx="90.00" cy="233.59" r="3.5" fill="#2ca02c"/>
<circle cx="131.43" cy="226.16" r="3.5" fill="#2ca02c"/>
<circle cx="172.86" cy="299.56" r="3.5" fill="#2ca02c"/>
<circle cx="255.71" cy="308.76" r="3.5" fill="#2ca02c"/>
<circle cx="421.43" cy="291.17" r="3.5" fill="#2ca02c"/>
<circle cx="670.00" cy="260.10" r="3.5" fill="#2ca02c"/>
<line x1="705" y1="123" x2="728" y2="123" stroke="#2ca02c" stroke-width="3"/>
<text x="736" y="127" font-family="Arial, sans-serif" font-size="12">Entropy-Relax(tau=0.3)+Greedy</text>
<polyline points="90.00,241.69 131.43,272.17 172.86,281.89 255.71,305.60 421.43,204.59 670.00,193.47" fill="none" stroke="#9467bd" stroke-width="2.4"/>
<circle cx="90.00" cy="241.69" r="3.5" fill="#9467bd"/>
<circle cx="131.43" cy="272.17" r="3.5" fill="#9467bd"/>
<circle cx="172.86" cy="281.89" r="3.5" fill="#9467bd"/>
<circle cx="255.71" cy="305.60" r="3.5" fill="#9467bd"/>
<circle cx="421.43" cy="204.59" r="3.5" fill="#9467bd"/>
<circle cx="670.00" cy="193.47" r="3.5" fill="#9467bd"/>
<line x1="705" y1="145" x2="728" y2="145" stroke="#9467bd" stroke-width="3"/>
<text x="736" y="149" font-family="Arial, sans-serif" font-size="12">Entropy-Relax(tau=0.3)+Projection</text>
<polyline points="90.00,284.31 131.43,227.32 172.86,332.29 255.71,287.79 421.43,157.85 670.00,188.88" fill="none" stroke="#ff7f0e" stroke-width="2.4"/>
<circle cx="90.00" cy="284.31" r="3.5" fill="#ff7f0e"/>
<circle cx="131.43" cy="227.32" r="3.5" fill="#ff7f0e"/>
<circle cx="172.86" cy="332.29" r="3.5" fill="#ff7f0e"/>
<circle cx="255.71" cy="287.79" r="3.5" fill="#ff7f0e"/>
<circle cx="421.43" cy="157.85" r="3.5" fill="#ff7f0e"/>
<circle cx="670.00" cy="188.88" r="3.5" fill="#ff7f0e"/>
<line x1="705" y1="167" x2="728" y2="167" stroke="#ff7f0e" stroke-width="3"/>
<text x="736" y="171" font-family="Arial, sans-serif" font-size="12">Entropy-Relax(tau=0.8)+Greedy</text>
<polyline points="90.00,216.78 131.43,276.56 172.86,292.32 255.71,340.98 421.43,193.16 670.00,272.40" fill="none" stroke="#17becf" stroke-width="2.4"/>
<circle cx="90.00" cy="216.78" r="3.5" fill="#17becf"/>
<circle cx="131.43" cy="276.56" r="3.5" fill="#17becf"/>
<circle cx="172.86" cy="292.32" r="3.5" fill="#17becf"/>
<circle cx="255.71" cy="340.98" r="3.5" fill="#17becf"/>
<circle cx="421.43" cy="193.16" r="3.5" fill="#17becf"/>
<circle cx="670.00" cy="272.40" r="3.5" fill="#17becf"/>
<line x1="705" y1="189" x2="728" y2="189" stroke="#17becf" stroke-width="3"/>
<text x="736" y="193" font-family="Arial, sans-serif" font-size="12">Entropy-Relax(tau=0.8)+Projection</text>
<polyline points="90.00,472.10 131.43,461.94 172.86,465.73 255.71,469.67 421.43,464.92 670.00,455.24" fill="none" stroke="#4d4d4d" stroke-width="2.4"/>
<circle cx="90.00" cy="472.10" r="3.5" fill="#4d4d4d"/>
<circle cx="131.43" cy="461.94" r="3.5" fill="#4d4d4d"/>
<circle cx="172.86" cy="465.73" r="3.5" fill="#4d4d4d"/>
<circle cx="255.71" cy="469.67" r="3.5" fill="#4d4d4d"/>
<circle cx="421.43" cy="464.92" r="3.5" fill="#4d4d4d"/>
<circle cx="670.00" cy="455.24" r="3.5" fill="#4d4d4d"/>
<line x1="705" y1="211" x2="728" y2="211" stroke="#4d4d4d" stroke-width="3"/>
<text x="736" y="215" font-family="Arial, sans-serif" font-size="12">Greedy-Cost</text>
<polyline points="90.00,472.83 131.43,472.63 172.86,471.68 255.71,472.77 421.43,470.89 670.00,470.55" fill="none" stroke="#1f77b4" stroke-width="2.4"/>
<circle cx="90.00" cy="472.83" r="3.5" fill="#1f77b4"/>
<circle cx="131.43" cy="472.63" r="3.5" fill="#1f77b4"/>
<circle cx="172.86" cy="471.68" r="3.5" fill="#1f77b4"/>
<circle cx="255.71" cy="472.77" r="3.5" fill="#1f77b4"/>
<circle cx="421.43" cy="470.89" r="3.5" fill="#1f77b4"/>
<circle cx="670.00" cy="470.55" r="3.5" fill="#1f77b4"/>
<line x1="705" y1="233" x2="728" y2="233" stroke="#1f77b4" stroke-width="3"/>
<text x="736" y="237" font-family="Arial, sans-serif" font-size="12">Hungarian</text>
<polyline points="90.00,310.21 131.43,368.66 172.86,392.30 255.71,365.68 421.43,353.25 670.00,384.90" fill="none" stroke="#d62728" stroke-width="2.4"/>
<circle cx="90.00" cy="310.21" r="3.5" fill="#d62728"/>
<circle cx="131.43" cy="368.66" r="3.5" fill="#d62728"/>
<circle cx="172.86" cy="392.30" r="3.5" fill="#d62728"/>
<circle cx="255.71" cy="365.68" r="3.5" fill="#d62728"/>
<circle cx="421.43" cy="353.25" r="3.5" fill="#d62728"/>
<circle cx="670.00" cy="384.90" r="3.5" fill="#d62728"/>
<line x1="705" y1="255" x2="728" y2="255" stroke="#d62728" stroke-width="3"/>
<text x="736" y="259" font-family="Arial, sans-serif" font-size="12">Hybrid-Score-Greedy(alpha=0.25)</text>
<polyline points="90.00,269.42 131.43,343.56 172.86,324.88 255.71,347.45 421.43,196.38 670.00,86.11" fill="none" stroke="#2ca02c" stroke-width="2.4"/>
<circle cx="90.00" cy="269.42" r="3.5" fill="#2ca02c"/>
<circle cx="131.43" cy="343.56" r="3.5" fill="#2ca02c"/>
<circle cx="172.86" cy="324.88" r="3.5" fill="#2ca02c"/>
<circle cx="255.71" cy="347.45" r="3.5" fill="#2ca02c"/>
<circle cx="421.43" cy="196.38" r="3.5" fill="#2ca02c"/>
<circle cx="670.00" cy="86.11" r="3.5" fill="#2ca02c"/>
<line x1="705" y1="277" x2="728" y2="277" stroke="#2ca02c" stroke-width="3"/>
<text x="736" y="281" font-family="Arial, sans-serif" font-size="12">LP-Relax+Projection</text>
<text x="380.0" y="532" text-anchor="middle" font-family="Arial, sans-serif" font-size="14">Number of users</text>
<text transform="translate(24 265.0) rotate(-90)" text-anchor="middle" font-family="Arial, sans-serif" font-size="14">Mean runtime (s)</text>
</svg>